<svg xmlns="http://www.w3.org/2000/svg" xmlns:xlink="http://www.w3.org/1999/xlink" version="1.1" style="" xml:space="preserve" width="48" height="50"><rect id="backgroundrect" width="100%" height="100%" x="0" y="0" fill="none" stroke="none"/>
















<g class="currentLayer" style=""><title>Layer 1</title><g id="svg_1" class="" opacity="1" fill="#ffffff" fill-opacity="1">
	<g id="svg_2" opacity="1" fill="#ffffff" fill-opacity="1">
		<path style="" d="M47.923,29.69423317337036 c0.021000000000000005,-0.6010000000000001 -0.516,-1.063 -0.901,-1.5150000000000001 c-0.6760000000000002,-2.733 -2.016,-5.864 -3.9610000000000003,-8.971 C39.942,14.230233173370362 31.688,6.204233173370361 28.553,4.9662331733703615 c-0.15800000000000003,-0.06200000000000001 -0.29900000000000004,-0.09700000000000003 -0.42900000000000005,-0.126 c-0.31300000000000006,-1.013 -0.47900000000000004,-1.7080000000000002 -1.6980000000000002,-2.521 c-3.354,-2.236 -7.099,-2.866 -9.578,-1.843 c-2.481,1.023 -3.859,6.687 -1.19,8.625 c2.5460000000000003,1.8570000000000002 7.583,-1.8880000000000001 9.195,0.509 c1.609,2.396 3.386,10.374 6.338,15.473 c-0.7460000000000001,-0.10200000000000001 -1.514,-0.15600000000000003 -2.307,-0.15600000000000003 c-3.406,0 -6.467,0.998 -8.63,2.593 c-1.85,-2.887 -5.08,-4.806 -8.764,-4.806 c-3.8200000000000003,0 -7.141,2.064 -8.95,5.13 v22.619 h4.8790000000000004 l1.042,-1.8490000000000002 c3.354,-1.287 7.32,-4.607 10.076,-8.147 C29.551,44.78923317337036 47.676,36.78923317337036 47.923,29.69423317337036 z" id="svg_3" opacity="1" fill="#ffffff" fill-opacity="1"/>
	</g>
</g><g id="svg_4" class="">
</g><g id="svg_5" class="">
</g><g id="svg_6" class="">
</g><g id="svg_7" class="">
</g><g id="svg_8" class="">
</g><g id="svg_9" class="">
</g><g id="svg_10" class="">
</g><g id="svg_11" class="">
</g><g id="svg_12" class="">
</g><g id="svg_13" class="">
</g><g id="svg_14" class="">
</g><g id="svg_15" class="">
</g><g id="svg_16" class="">
</g><g id="svg_17" class="">
</g><g id="svg_18" class="">
</g><image id="svg_22" x="29" y="28" width="0" height="0" xlink:href="logo/vector_paint_icon256.png" style="color: rgb(0, 0, 0);"/></g></svg>